<?xml version="1.0" encoding="UTF-8"?>
<svg id="mermaid-1790036325626" width="214.296875" xmlns="http://www.w3.org/2000/svg" xmlns:xlink="http://www.w3.org/1999/xlink" class="classDiagram" viewBox="4 4 214.296875 1512" role="graphics-document document" aria-roledescription="classDiagram" height="1512"><style>#mermaid-1790036325626{font-family:"trebuchet ms",verdana,arial,sans-serif;font-size:16px;fill:#333;}@keyframes edge-animation-frame{from{stroke-dashoffset:0;}}@keyframes dash{to{stroke-dashoffset:0;}}#mermaid-1790036325626 .edge-animation-slow{stroke-dasharray:9,5!important;stroke-dashoffset:900;animation:dash 50s linear infinite;stroke-linecap:round;}#mermaid-1790036325626 .edge-animation-fast{stroke-dasharray:9,5!important;stroke-dashoffset:900;animation:dash 20s linear infinite;stroke-linecap:round;}#mermaid-1790036325626 .error-icon{fill:#552222;}#mermaid-1790036325626 .error-text{fill:#552222;stroke:#552222;}#mermaid-1790036325626 .edge-thickness-normal{stroke-width:1px;}#mermaid-1790036325626 .edge-thickness-thick{stroke-width:3.5px;}#mermaid-1790036325626 .edge-pattern-solid{stroke-dasharray:0;}#mermaid-1790036325626 .edge-thickness-invisible{stroke-width:0;fill:none;}#mermaid-1790036325626 .edge-pattern-dashed{stroke-dasharray:3;}#mermaid-1790036325626 .edge-pattern-dotted{stroke-dasharray:2;}#mermaid-1790036325626 .marker{fill:#333333;stroke:#333333;}#mermaid-1790036325626 .marker.cross{stroke:#333333;}#mermaid-1790036325626 svg{font-family:"trebuchet ms",verdana,arial,sans-serif;font-size:16px;}#mermaid-1790036325626 p{margin:0;}#mermaid-1790036325626 g.classGroup text{fill:#9370DB;stroke:none;font-family:"trebuchet ms",verdana,arial,sans-serif;font-size:10px;}#mermaid-1790036325626 g.classGroup text .title{font-weight:bolder;}#mermaid-1790036325626 .cluster-label text{fill:#333;}#mermaid-1790036325626 .cluster-label span{color:#333;}#mermaid-1790036325626 .cluster-label span p{background-color:transparent;}#mermaid-1790036325626 .cluster rect{fill:#ffffde;stroke:#aaaa33;stroke-width:1px;}#mermaid-1790036325626 .cluster text{fill:#333;}#mermaid-1790036325626 .cluster span{color:#333;}#mermaid-1790036325626 .nodeLabel,#mermaid-1790036325626 .edgeLabel{color:#131300;}#mermaid-1790036325626 .noteLabel .nodeLabel,#mermaid-1790036325626 .noteLabel .edgeLabel{color:black;}#mermaid-1790036325626 .edgeLabel .label rect{fill:#ECECFF;}#mermaid-1790036325626 .label text{fill:#131300;}#mermaid-1790036325626 .labelBkg{background:#ECECFF;}#mermaid-1790036325626 .edgeLabel .label span{background:#ECECFF;}#mermaid-1790036325626 .classTitle{font-weight:bolder;}#mermaid-1790036325626 .node rect,#mermaid-1790036325626 .node circle,#mermaid-1790036325626 .node ellipse,#mermaid-1790036325626 .node polygon,#mermaid-1790036325626 .node path{fill:#ECECFF;stroke:#9370DB;stroke-width:1;}#mermaid-1790036325626 .divider{stroke:#9370DB;stroke-width:1;}#mermaid-1790036325626 g.clickable{cursor:pointer;}#mermaid-1790036325626 g.classGroup rect{fill:#ECECFF;stroke:#9370DB;}#mermaid-1790036325626 g.classGroup line{stroke:#9370DB;stroke-width:1;}#mermaid-1790036325626 .classLabel .box{stroke:none;stroke-width:0;fill:#ECECFF;opacity:0.5;}#mermaid-1790036325626 .classLabel .label{fill:#9370DB;font-size:10px;}#mermaid-1790036325626 .relation{stroke:#333333;stroke-width:1;fill:none;}#mermaid-1790036325626 .dashed-line{stroke-dasharray:3;}#mermaid-1790036325626 .dotted-line{stroke-dasharray:1 2;}#mermaid-1790036325626 [id$="-compositionStart"],#mermaid-1790036325626 .composition{fill:#333333!important;stroke:#333333!important;stroke-width:1;}#mermaid-1790036325626 [id$="-compositionEnd"],#mermaid-1790036325626 .composition{fill:#333333!important;stroke:#333333!important;stroke-width:1;}#mermaid-1790036325626 [id$="-dependencyStart"],#mermaid-1790036325626 .dependency{fill:#333333!important;stroke:#333333!important;stroke-width:1;}#mermaid-1790036325626 [id$="-dependencyEnd"],#mermaid-1790036325626 .dependency{fill:#333333!important;stroke:#333333!important;stroke-width:1;}#mermaid-1790036325626 [id$="-extensionStart"],#mermaid-1790036325626 .extension{fill:transparent!important;stroke:#333333!important;stroke-width:1;}#mermaid-1790036325626 [id$="-extensionEnd"],#mermaid-1790036325626 .extension{fill:transparent!important;stroke:#333333!important;stroke-width:1;}#mermaid-1790036325626 [id$="-aggregationStart"],#mermaid-1790036325626 .aggregation{fill:transparent!important;stroke:#333333!important;stroke-width:1;}#mermaid-1790036325626 [id$="-aggregationEnd"],#mermaid-1790036325626 .aggregation{fill:transparent!important;stroke:#333333!important;stroke-width:1;}#mermaid-1790036325626 [id$="-lollipopStart"],#mermaid-1790036325626 .lollipop{fill:#ECECFF!important;stroke:#333333!important;stroke-width:1;}#mermaid-1790036325626 [id$="-lollipopEnd"],#mermaid-1790036325626 .lollipop{fill:#ECECFF!important;stroke:#333333!important;stroke-width:1;}#mermaid-1790036325626 .edgeTerminals{font-size:11px;line-height:initial;}#mermaid-1790036325626 .classTitleText{text-anchor:middle;font-size:18px;fill:#333;}#mermaid-1790036325626 .edgeLabel[data-look="neo"]{background-color:rgba(232,232,232, 0.8);text-align:center;}#mermaid-1790036325626 .edgeLabel[data-look="neo"] p{background-color:rgba(232,232,232, 0.8);}#mermaid-1790036325626 .edgeLabel[data-look="neo"] rect{opacity:0.5;background-color:rgba(232,232,232, 0.8);fill:rgba(232,232,232, 0.8);}#mermaid-1790036325626 .label-icon{display:inline-block;height:1em;overflow:visible;vertical-align:-0.125em;}#mermaid-1790036325626 .node .label-icon path{fill:currentColor;stroke:revert;stroke-width:revert;}#mermaid-1790036325626 .node .neo-node{stroke:#9370DB;}#mermaid-1790036325626 [data-look="neo"].node rect,#mermaid-1790036325626 [data-look="neo"].cluster rect,#mermaid-1790036325626 [data-look="neo"].node polygon{stroke:#9370DB;filter:drop-shadow(1px 2px 2px rgba(185, 185, 185, 1));}#mermaid-1790036325626 [data-look="neo"].swimlane.cluster rect{filter:none;}#mermaid-1790036325626 [data-look="neo"].node path{stroke:#9370DB;stroke-width:1px;}#mermaid-1790036325626 [data-look="neo"].node .outer-path{filter:drop-shadow(1px 2px 2px rgba(185, 185, 185, 1));}#mermaid-1790036325626 [data-look="neo"].node .neo-line path{stroke:#9370DB;filter:none;}#mermaid-1790036325626 [data-look="neo"].node circle{stroke:#9370DB;filter:drop-shadow(1px 2px 2px rgba(185, 185, 185, 1));}#mermaid-1790036325626 [data-look="neo"].node circle .state-start{fill:#000000;}#mermaid-1790036325626 [data-look="neo"].icon-shape .icon{fill:#9370DB;filter:drop-shadow(1px 2px 2px rgba(185, 185, 185, 1));}#mermaid-1790036325626 [data-look="neo"].icon-shape .icon-neo path{stroke:#9370DB;filter:drop-shadow(1px 2px 2px rgba(185, 185, 185, 1));}#mermaid-1790036325626 :root{--mermaid-font-family:"trebuchet ms",verdana,arial,sans-serif;}</style><g><defs><marker id="mermaid-1790036325626_classDiagram-aggregationStart" class="marker aggregation classDiagram" refX="18" refY="7" markerWidth="190" markerHeight="240" orient="auto" markerUnits="userSpaceOnUse"><path d="M 18,7 L9,13 L1,7 L9,1 Z"></path></marker></defs><defs><marker id="mermaid-1790036325626_classDiagram-aggregationEnd" class="marker aggregation classDiagram" refX="1" refY="7" markerWidth="20" markerHeight="28" orient="auto" markerUnits="userSpaceOnUse"><path d="M 18,7 L9,13 L1,7 L9,1 Z"></path></marker></defs><defs><marker id="mermaid-1790036325626_classDiagram-aggregationStart-margin" class="marker aggregation classDiagram" refX="15" refY="7" markerWidth="190" markerHeight="240" orient="auto" markerUnits="userSpaceOnUse"><path d="M 18,7 L9,13 L1,7 L9,1 Z" style="stroke-width: 2;"></path></marker></defs><defs><marker id="mermaid-1790036325626_classDiagram-aggregationEnd-margin" class="marker aggregation classDiagram" refX="1" refY="7" markerWidth="20" markerHeight="28" orient="auto" markerUnits="userSpaceOnUse"><path d="M 18,7 L9,13 L1,7 L9,1 Z" style="stroke-width: 2;"></path></marker></defs><defs><marker id="mermaid-1790036325626_classDiagram-extensionStart" class="marker extension classDiagram" refX="18" refY="7" markerWidth="20" markerHeight="28" orient="auto" markerUnits="userSpaceOnUse"><path d="M 1,7 L18,13 V 1 Z"></path></marker></defs><defs><marker id="mermaid-1790036325626_classDiagram-extensionEnd" class="marker extension classDiagram" refX="1" refY="7" markerWidth="20" markerHeight="28" orient="auto" markerUnits="userSpaceOnUse"><path d="M 1,1 V 13 L18,7 Z"></path></marker></defs><marker id="mermaid-1790036325626_classDiagram-extensionStart-margin" class="marker extension classDiagram" refX="18" refY="7" markerWidth="20" markerHeight="28" orient="auto" markerUnits="userSpaceOnUse" viewBox="0 0 20 14"><polygon points="10,7 18,13 18,1" style="stroke-width: 2; stroke-dasharray: 0;"></polygon></marker><defs><marker id="mermaid-1790036325626_classDiagram-extensionEnd-margin" class="marker extension classDiagram" refX="9" refY="7" markerWidth="20" markerHeight="28" orient="auto" markerUnits="userSpaceOnUse" viewBox="0 0 20 14"><polygon points="10,1 10,13 18,7" style="stroke-width: 2; stroke-dasharray: 0;"></polygon></marker></defs><defs><marker id="mermaid-1790036325626_classDiagram-compositionStart" class="marker composition classDiagram" refX="18" refY="7" markerWidth="190" markerHeight="240" orient="auto" markerUnits="userSpaceOnUse"><path d="M 18,7 L9,13 L1,7 L9,1 Z"></path></marker></defs><defs><marker id="mermaid-1790036325626_classDiagram-compositionEnd" class="marker composition classDiagram" refX="1" refY="7" markerWidth="20" markerHeight="28" orient="auto" markerUnits="userSpaceOnUse"><path d="M 18,7 L9,13 L1,7 L9,1 Z"></path></marker></defs><defs><marker id="mermaid-1790036325626_classDiagram-compositionStart-margin" class="marker composition classDiagram" refX="15" refY="7" markerWidth="190" markerHeight="240" orient="auto" markerUnits="userSpaceOnUse"><path viewBox="0 0 15 15" d="M 18,7 L9,13 L1,7 L9,1 Z" style="stroke-width: 0;"></path></marker></defs><defs><marker id="mermaid-1790036325626_classDiagram-compositionEnd-margin" class="marker composition classDiagram" refX="3.5" refY="7" markerWidth="20" markerHeight="28" orient="auto" markerUnits="userSpaceOnUse"><path d="M 18,7 L9,13 L1,7 L9,1 Z" style="stroke-width: 0;"></path></marker></defs><defs><marker id="mermaid-1790036325626_classDiagram-dependencyStart" class="marker dependency classDiagram" refX="6" refY="7" markerWidth="190" markerHeight="240" orient="auto" markerUnits="userSpaceOnUse"><path d="M 5,7 L9,13 L1,7 L9,1 Z"></path></marker></defs><defs><marker id="mermaid-1790036325626_classDiagram-dependencyEnd" class="marker dependency classDiagram" refX="13" refY="7" markerWidth="20" markerHeight="28" orient="auto" markerUnits="userSpaceOnUse"><path d="M 18,7 L9,13 L14,7 L9,1 Z"></path></marker></defs><defs><marker id="mermaid-1790036325626_classDiagram-dependencyStart-margin" class="marker dependency classDiagram" refX="4" refY="7" markerWidth="190" markerHeight="240" orient="auto" markerUnits="userSpaceOnUse"><path d="M 5,7 L9,13 L1,7 L9,1 Z" style="stroke-width: 0;"></path></marker></defs><defs><marker id="mermaid-1790036325626_classDiagram-dependencyEnd-margin" class="marker dependency classDiagram" refX="16" refY="7" markerWidth="20" markerHeight="28" orient="auto" markerUnits="userSpaceOnUse"><path d="M 18,7 L9,13 L14,7 L9,1 Z" style="stroke-width: 0;"></path></marker></defs><defs><marker id="mermaid-1790036325626_classDiagram-lollipopStart" class="marker lollipop classDiagram" refX="13" refY="7" markerWidth="190" markerHeight="240" orient="auto" markerUnits="userSpaceOnUse"><circle fill="transparent" cx="7" cy="7" r="6"></circle></marker></defs><defs><marker id="mermaid-1790036325626_classDiagram-lollipopEnd" class="marker lollipop classDiagram" refX="1" refY="7" markerWidth="190" markerHeight="240" orient="auto" markerUnits="userSpaceOnUse"><circle fill="transparent" cx="7" cy="7" r="6"></circle></marker></defs><defs><marker id="mermaid-1790036325626_classDiagram-lollipopStart-margin" class="marker lollipop classDiagram" refX="13" refY="7" markerWidth="190" markerHeight="240" orient="auto" markerUnits="userSpaceOnUse"><circle fill="transparent" cx="7" cy="7" r="6" stroke-width="2"></circle></marker></defs><defs><marker id="mermaid-1790036325626_classDiagram-lollipopEnd-margin" class="marker lollipop classDiagram" refX="1" refY="7" markerWidth="190" markerHeight="240" orient="auto" markerUnits="userSpaceOnUse"><circle fill="transparent" cx="7" cy="7" r="6" stroke-width="2"></circle></marker></defs><g class="root"><g class="clusters"></g><g class="edges edgePaths"></g><g class="edgeLabels"></g><g class="nodes"><g class="node default " id="mermaid-1790036325626-classId-Paleta-0" data-look="neo" transform="translate(111.1484375, 144)"><g class="basic label-container outer-path"><path d="M-88.0390625 -132 L88.0390625 -132 L88.0390625 132 L-88.0390625 132" stroke="none" stroke-width="0" fill="#ECECFF" style=""></path><path d="M-88.0390625 -132 C-23.542695364506045 -132, 40.95367177098791 -132, 88.0390625 -132 M-88.0390625 -132 C-52.034708309096004 -132, -16.030354118192008 -132, 88.0390625 -132 M88.0390625 -132 C88.0390625 -32.81533292103627, 88.0390625 66.36933415792745, 88.0390625 132 M88.0390625 -132 C88.0390625 -72.5504524534116, 88.0390625 -13.100904906823189, 88.0390625 132 M88.0390625 132 C48.39556104387305 132, 8.752059587746103 132, -88.0390625 132 M88.0390625 132 C35.377050163898495 132, -17.28496217220301 132, -88.0390625 132 M-88.0390625 132 C-88.0390625 50.3483577933999, -88.0390625 -31.303284413200203, -88.0390625 -132 M-88.0390625 132 C-88.0390625 47.50131782202398, -88.0390625 -36.997364355952044, -88.0390625 -132" stroke="#9370DB" stroke-width="1.3" fill="none" stroke-dasharray="0 0" style=""></path></g><g class="annotation-group text" transform="translate(-53.375, -108)"><g class="label" style="" transform="translate(0,-12)"><foreignObject width="106.75" height="24"><div xmlns="http://www.w3.org/1999/xhtml" style="display: table-cell; white-space: nowrap; line-height: 1.5; max-width: 146px; text-align: center;"><span class="nodeLabel markdown-node-label" style=""><p>«enumeration»</p></span></div></foreignObject></g></g><g class="label-group text" transform="translate(-23.5703125, -84)"><g class="label" style="font-weight: bolder" transform="translate(0,-12)"><foreignObject width="47.140625" height="24"><div xmlns="http://www.w3.org/1999/xhtml" style="display: table-cell; white-space: nowrap; line-height: 1.5; max-width: 89px; text-align: center;"><span class="nodeLabel markdown-node-label" style=""><p>Paleta</p></span></div></foreignObject></g></g><g class="members-group text" transform="translate(-76.0390625, -36)"><g class="label" style="" transform="translate(0,-12)"><foreignObject width="69.34375" height="24"><div xmlns="http://www.w3.org/1999/xhtml" style="display: table-cell; white-space: nowrap; line-height: 1.5; max-width: 117px; text-align: center;"><span class="nodeLabel markdown-node-label" style=""><p>OCEANO</p></span></div></foreignObject></g><g class="label" style="" transform="translate(0,12)"><foreignObject width="98.703125" height="24"><div xmlns="http://www.w3.org/1999/xhtml" style="display: table-cell; white-space: nowrap; line-height: 1.5; max-width: 148px; text-align: center;"><span class="nodeLabel markdown-node-label" style=""><p>ESMERALDA</p></span></div></foreignObject></g><g class="label" style="" transform="translate(0,36)"><foreignObject width="53.359375" height="24"><div xmlns="http://www.w3.org/1999/xhtml" style="display: table-cell; white-space: nowrap; line-height: 1.5; max-width: 103px; text-align: center;"><span class="nodeLabel markdown-node-label" style=""><p>BLUSH</p></span></div></foreignObject></g><g class="label" style="" transform="translate(0,60)"><foreignObject width="54.234375" height="24"><div xmlns="http://www.w3.org/1999/xhtml" style="display: table-cell; white-space: nowrap; line-height: 1.5; max-width: 103px; text-align: center;"><span class="nodeLabel markdown-node-label" style=""><p>TERRA</p></span></div></foreignObject></g><g class="label" style="" transform="translate(0,84)"><foreignObject width="43.59375" height="24"><div xmlns="http://www.w3.org/1999/xhtml" style="display: table-cell; white-space: nowrap; line-height: 1.5; max-width: 95px; text-align: center;"><span class="nodeLabel markdown-node-label" style=""><p>LILAS</p></span></div></foreignObject></g><g class="label" style="" transform="translate(0,108)"><foreignObject width="66.09375" height="24"><div xmlns="http://www.w3.org/1999/xhtml" style="display: table-cell; white-space: nowrap; line-height: 1.5; max-width: 114px; text-align: center;"><span class="nodeLabel markdown-node-label" style=""><p>CARVAO</p></span></div></foreignObject></g></g><g class="methods-group text" transform="translate(-76.0390625, 132)"></g><g class="divider neo-line" style=""><path d="M-88.0390625 -60 C-52.00332913859986 -59.99979534236089, -15.967595777199719 -59.99959068472178, 88.0390625 -59.999 M-88.0390625 -60 C-42.62017234103689 -59.99974205262489, 2.7987178179262173 -59.99948410524977, 88.0390625 -59.999" stroke="#9370DB" stroke-width="1.3" fill="none" stroke-dasharray="0 0" style=""></path></g><g class="divider neo-line" style=""><path d="M-88.0390625 108 C-45.54091696419404 108.00024135959839, -3.042771428388079 108.00048271919678, 88.0390625 108.001 M-88.0390625 108 C-18.691141881265807 108.0003938474505, 50.656778737468386 108.00078769490099, 88.0390625 108.001" stroke="#9370DB" stroke-width="1.3" fill="none" stroke-dasharray="0 0" style=""></path></g></g><g class="node default " id="mermaid-1790036325626-classId-Estilo-1" data-look="neo" transform="translate(111.1484375, 424)"><g class="basic label-container outer-path"><path d="M-80.46875 -108 L80.46875 -108 L80.46875 108 L-80.46875 108" stroke="none" stroke-width="0" fill="#ECECFF" style=""></path><path d="M-80.46875 -108 C-22.61993252644683 -108, 35.22888494710634 -108, 80.46875 -108 M-80.46875 -108 C-17.77359969690891 -108, 44.92155060618218 -108, 80.46875 -108 M80.46875 -108 C80.46875 -48.757754382051964, 80.46875 10.484491235896073, 80.46875 108 M80.46875 -108 C80.46875 -46.61848823003742, 80.46875 14.763023539925157, 80.46875 108 M80.46875 108 C46.634942253247985 108, 12.80113450649597 108, -80.46875 108 M80.46875 108 C41.485945039925795 108, 2.5031400798515904 108, -80.46875 108 M-80.46875 108 C-80.46875 40.13637356823891, -80.46875 -27.72725286352218, -80.46875 -108 M-80.46875 108 C-80.46875 28.68995030708831, -80.46875 -50.62009938582338, -80.46875 -108" stroke="#9370DB" stroke-width="1.3" fill="none" stroke-dasharray="0 0" style=""></path></g><g class="annotation-group text" transform="translate(-53.375, -84)"><g class="label" style="" transform="translate(0,-12)"><foreignObject width="106.75" height="24"><div xmlns="http://www.w3.org/1999/xhtml" style="display: table-cell; white-space: nowrap; line-height: 1.5; max-width: 146px; text-align: center;"><span class="nodeLabel markdown-node-label" style=""><p>«enumeration»</p></span></div></foreignObject></g></g><g class="label-group text" transform="translate(-21.78125, -60)"><g class="label" style="font-weight: bolder" transform="translate(0,-12)"><foreignObject width="43.5625" height="24"><div xmlns="http://www.w3.org/1999/xhtml" style="display: table-cell; white-space: nowrap; line-height: 1.5; max-width: 87px; text-align: center;"><span class="nodeLabel markdown-node-label" style=""><p>Estilo</p></span></div></foreignObject></g></g><g class="members-group text" transform="translate(-68.46875, -12)"><g class="label" style="" transform="translate(0,-12)"><foreignObject width="80.921875" height="24"><div xmlns="http://www.w3.org/1999/xhtml" style="display: table-cell; white-space: nowrap; line-height: 1.5; max-width: 127px; text-align: center;"><span class="nodeLabel markdown-node-label" style=""><p>CLASSICO</p></span></div></foreignObject></g><g class="label" style="" transform="translate(0,12)"><foreignObject width="83.5625" height="24"><div xmlns="http://www.w3.org/1999/xhtml" style="display: table-cell; white-space: nowrap; line-height: 1.5; max-width: 131px; text-align: center;"><span class="nodeLabel markdown-node-label" style=""><p>MODERNO</p></span></div></foreignObject></g><g class="label" style="" transform="translate(0,36)"><foreignObject width="66.671875" height="24"><div xmlns="http://www.w3.org/1999/xhtml" style="display: table-cell; white-space: nowrap; line-height: 1.5; max-width: 122px; text-align: center;"><span class="nodeLabel markdown-node-label" style=""><p>MINIMAL</p></span></div></foreignObject></g><g class="label" style="" transform="translate(0,60)"><foreignObject width="80.015625" height="24"><div xmlns="http://www.w3.org/1999/xhtml" style="display: table-cell; white-space: nowrap; line-height: 1.5; max-width: 131px; text-align: center;"><span class="nodeLabel markdown-node-label" style=""><p>VIBRANTE</p></span></div></foreignObject></g></g><g class="methods-group text" transform="translate(-68.46875, 108)"></g><g class="divider neo-line" style=""><path d="M-80.46875 -36 C-40.321837586322395 -35.99975054345685, -0.1749251726447909 -35.999501086913696, 80.46875 -35.999 M-80.46875 -36 C-34.704635485296514 -35.9997156404535, 11.059479029406972 -35.999431280907004, 80.46875 -35.999" stroke="#9370DB" stroke-width="1.3" fill="none" stroke-dasharray="0 0" style=""></path></g><g class="divider neo-line" style=""><path d="M-80.46875 84 C-21.941618723667226 84.00036366372832, 36.58551255266555 84.00072732745664, 80.46875 84.001 M-80.46875 84 C-32.35273426757608 84.00029897330164, 15.763281464847836 84.00059794660328, 80.46875 84.001" stroke="#9370DB" stroke-width="1.3" fill="none" stroke-dasharray="0 0" style=""></path></g></g><g class="node default " id="mermaid-1790036325626-classId-FormatoCard-2" data-look="neo" transform="translate(111.1484375, 668)"><g class="basic label-container outer-path"><path d="M-92.765625 -96 L92.765625 -96 L92.765625 96 L-92.765625 96" stroke="none" stroke-width="0" fill="#ECECFF" style=""></path><path d="M-92.765625 -96 C-47.733876321119354 -96, -2.7021276422387075 -96, 92.765625 -96 M-92.765625 -96 C-53.64596441546184 -96, -14.52630383092368 -96, 92.765625 -96 M92.765625 -96 C92.765625 -23.931084263902875, 92.765625 48.13783147219425, 92.765625 96 M92.765625 -96 C92.765625 -28.618974807867062, 92.765625 38.762050384265876, 92.765625 96 M92.765625 96 C30.205735021144946 96, -32.35415495771011 96, -92.765625 96 M92.765625 96 C22.308279114852084 96, -48.14906677029583 96, -92.765625 96 M-92.765625 96 C-92.765625 47.27903074449516, -92.765625 -1.4419385110096812, -92.765625 -96 M-92.765625 96 C-92.765625 40.27933423384496, -92.765625 -15.441331532310073, -92.765625 -96" stroke="#9370DB" stroke-width="1.3" fill="none" stroke-dasharray="0 0" style=""></path></g><g class="annotation-group text" transform="translate(-53.375, -72)"><g class="label" style="" transform="translate(0,-12)"><foreignObject width="106.75" height="24"><div xmlns="http://www.w3.org/1999/xhtml" style="display: table-cell; white-space: nowrap; line-height: 1.5; max-width: 146px; text-align: center;"><span class="nodeLabel markdown-node-label" style=""><p>«enumeration»</p></span></div></foreignObject></g></g><g class="label-group text" transform="translate(-50.2265625, -48)"><g class="label" style="font-weight: bolder" transform="translate(0,-12)"><foreignObject width="100.453125" height="24"><div xmlns="http://www.w3.org/1999/xhtml" style="display: table-cell; white-space: nowrap; line-height: 1.5; max-width: 135px; text-align: center;"><span class="nodeLabel markdown-node-label" style=""><p>FormatoCard</p></span></div></foreignObject></g></g><g class="members-group text" transform="translate(-80.765625, 0)"><g class="label" style="" transform="translate(0,-12)"><foreignObject width="92.453125" height="24"><div xmlns="http://www.w3.org/1999/xhtml" style="display: table-cell; white-space: nowrap; line-height: 1.5; max-width: 142px; text-align: center;"><span class="nodeLabel markdown-node-label" style=""><p>QUADRADO</p></span></div></foreignObject></g><g class="label" style="" transform="translate(0,12)"><foreignObject width="74.96875" height="24"><div xmlns="http://www.w3.org/1999/xhtml" style="display: table-cell; white-space: nowrap; line-height: 1.5; max-width: 122px; text-align: center;"><span class="nodeLabel markdown-node-label" style=""><p>RETRATO</p></span></div></foreignObject></g><g class="label" style="" transform="translate(0,36)"><foreignObject width="108.15625" height="24"><div xmlns="http://www.w3.org/1999/xhtml" style="display: table-cell; white-space: nowrap; line-height: 1.5; max-width: 156px; text-align: center;"><span class="nodeLabel markdown-node-label" style=""><p>PANORAMICO</p></span></div></foreignObject></g></g><g class="methods-group text" transform="translate(-80.765625, 96)"></g><g class="divider neo-line" style=""><path d="M-92.765625 -24 C-19.092418716602197 -23.999602906754074, 54.58078756679561 -23.999205813508144, 92.765625 -23.999 M-92.765625 -24 C-27.35669980550574 -23.999647450630583, 38.05222538898852 -23.999294901261166, 92.765625 -23.999" stroke="#9370DB" stroke-width="1.3" fill="none" stroke-dasharray="0 0" style=""></path></g><g class="divider neo-line" style=""><path d="M-92.765625 72 C-32.17001796308538 72.00032660593317, 28.425589073829244 72.00065321186632, 92.765625 72.001 M-92.765625 72 C-47.74225393710835 72.00024267270912, -2.7188828742167033 72.00048534541823, 92.765625 72.001" stroke="#9370DB" stroke-width="1.3" fill="none" stroke-dasharray="0 0" style=""></path></g></g><g class="node default " id="mermaid-1790036325626-classId-Layout-3" data-look="neo" transform="translate(111.1484375, 912)"><g class="basic label-container outer-path"><path d="M-99.1484375 -108 L99.1484375 -108 L99.1484375 108 L-99.1484375 108" stroke="none" stroke-width="0" fill="#ECECFF" style=""></path><path d="M-99.1484375 -108 C-50.54343078800509 -108, -1.938424076010179 -108, 99.1484375 -108 M-99.1484375 -108 C-52.1068402156943 -108, -5.065242931388596 -108, 99.1484375 -108 M99.1484375 -108 C99.1484375 -23.975379361090475, 99.1484375 60.04924127781905, 99.1484375 108 M99.1484375 -108 C99.1484375 -30.769780303012993, 99.1484375 46.46043939397401, 99.1484375 108 M99.1484375 108 C40.17000542190092 108, -18.808426656198165 108, -99.1484375 108 M99.1484375 108 C47.15964484052415 108, -4.8291478189516965 108, -99.1484375 108 M-99.1484375 108 C-99.1484375 36.29433770791876, -99.1484375 -35.411324584162486, -99.1484375 -108 M-99.1484375 108 C-99.1484375 34.38603930057006, -99.1484375 -39.22792139885988, -99.1484375 -108" stroke="#9370DB" stroke-width="1.3" fill="none" stroke-dasharray="0 0" style=""></path></g><g class="annotation-group text" transform="translate(-53.375, -84)"><g class="label" style="" transform="translate(0,-12)"><foreignObject width="106.75" height="24"><div xmlns="http://www.w3.org/1999/xhtml" style="display: table-cell; white-space: nowrap; line-height: 1.5; max-width: 146px; text-align: center;"><span class="nodeLabel markdown-node-label" style=""><p>«enumeration»</p></span></div></foreignObject></g></g><g class="label-group text" transform="translate(-26.2265625, -60)"><g class="label" style="font-weight: bolder" transform="translate(0,-12)"><foreignObject width="52.453125" height="24"><div xmlns="http://www.w3.org/1999/xhtml" style="display: table-cell; white-space: nowrap; line-height: 1.5; max-width: 96px; text-align: center;"><span class="nodeLabel markdown-node-label" style=""><p>Layout</p></span></div></foreignObject></g></g><g class="members-group text" transform="translate(-87.1484375, -12)"><g class="label" style="" transform="translate(0,-12)"><foreignObject width="120.921875" height="24"><div xmlns="http://www.w3.org/1999/xhtml" style="display: table-cell; white-space: nowrap; line-height: 1.5; max-width: 167px; text-align: center;"><span class="nodeLabel markdown-node-label" style=""><p>GRADE_DENSA</p></span></div></foreignObject></g><g class="label" style="" transform="translate(0,12)"><foreignObject width="120.046875" height="24"><div xmlns="http://www.w3.org/1999/xhtml" style="display: table-cell; white-space: nowrap; line-height: 1.5; max-width: 169px; text-align: center;"><span class="nodeLabel markdown-node-label" style=""><p>GRADE_LARGA</p></span></div></foreignObject></g><g class="label" style="" transform="translate(0,36)"><foreignObject width="43.28125" height="24"><div xmlns="http://www.w3.org/1999/xhtml" style="display: table-cell; white-space: nowrap; line-height: 1.5; max-width: 94px; text-align: center;"><span class="nodeLabel markdown-node-label" style=""><p>LISTA</p></span></div></foreignObject></g><g class="label" style="" transform="translate(0,60)"><foreignObject width="86.828125" height="24"><div xmlns="http://www.w3.org/1999/xhtml" style="display: table-cell; white-space: nowrap; line-height: 1.5; max-width: 133px; text-align: center;"><span class="nodeLabel markdown-node-label" style=""><p>DESTAQUE</p></span></div></foreignObject></g></g><g class="methods-group text" transform="translate(-87.1484375, 108)"></g><g class="divider neo-line" style=""><path d="M-99.1484375 -36 C-22.43878033201922 -35.99961315750857, 54.27087683596156 -35.99922631501714, 99.1484375 -35.999 M-99.1484375 -36 C-44.75347566513396 -35.999725689263464, 9.641486169732076 -35.99945137852692, 99.1484375 -35.999" stroke="#9370DB" stroke-width="1.3" fill="none" stroke-dasharray="0 0" style=""></path></g><g class="divider neo-line" style=""><path d="M-99.1484375 84 C-24.268271529173305 84.0003776164701, 50.61189444165339 84.00075523294022, 99.1484375 84.001 M-99.1484375 84 C-40.02690593518818 84.00029814656214, 19.094625629623636 84.00059629312429, 99.1484375 84.001" stroke="#9370DB" stroke-width="1.3" fill="none" stroke-dasharray="0 0" style=""></path></g></g><g class="node default " id="mermaid-1790036325626-classId-Fonte-4" data-look="neo" transform="translate(111.1484375, 1180)"><g class="basic label-container outer-path"><path d="M-79.140625 -120 L79.140625 -120 L79.140625 120 L-79.140625 120" stroke="none" stroke-width="0" fill="#ECECFF" style=""></path><path d="M-79.140625 -120 C-44.59859216409635 -120, -10.056559328192705 -120, 79.140625 -120 M-79.140625 -120 C-38.75529001600351 -120, 1.630044967992987 -120, 79.140625 -120 M79.140625 -120 C79.140625 -39.26706885765458, 79.140625 41.46586228469084, 79.140625 120 M79.140625 -120 C79.140625 -26.260657842954288, 79.140625 67.47868431409142, 79.140625 120 M79.140625 120 C43.046721161000555 120, 6.95281732200111 120, -79.140625 120 M79.140625 120 C40.60462721982689 120, 2.068629439653776 120, -79.140625 120 M-79.140625 120 C-79.140625 66.29688045484832, -79.140625 12.593760909696655, -79.140625 -120 M-79.140625 120 C-79.140625 38.669336724255956, -79.140625 -42.66132655148809, -79.140625 -120" stroke="#9370DB" stroke-width="1.3" fill="none" stroke-dasharray="0 0" style=""></path></g><g class="annotation-group text" transform="translate(-53.375, -96)"><g class="label" style="" transform="translate(0,-12)"><foreignObject width="106.75" height="24"><div xmlns="http://www.w3.org/1999/xhtml" style="display: table-cell; white-space: nowrap; line-height: 1.5; max-width: 146px; text-align: center;"><span class="nodeLabel markdown-node-label" style=""><p>«enumeration»</p></span></div></foreignObject></g></g><g class="label-group text" transform="translate(-21.7734375, -72)"><g class="label" style="font-weight: bolder" transform="translate(0,-12)"><foreignObject width="43.546875" height="24"><div xmlns="http://www.w3.org/1999/xhtml" style="display: table-cell; white-space: nowrap; line-height: 1.5; max-width: 86px; text-align: center;"><span class="nodeLabel markdown-node-label" style=""><p>Fonte</p></span></div></foreignObject></g></g><g class="members-group text" transform="translate(-67.140625, -24)"><g class="label" style="" transform="translate(0,-12)"><foreignObject width="43.578125" height="24"><div xmlns="http://www.w3.org/1999/xhtml" style="display: table-cell; white-space: nowrap; line-height: 1.5; max-width: 91px; text-align: center;"><span class="nodeLabel markdown-node-label" style=""><p>SANS</p></span></div></foreignObject></g><g class="label" style="" transform="translate(0,12)"><foreignObject width="80.90625" height="24"><div xmlns="http://www.w3.org/1999/xhtml" style="display: table-cell; white-space: nowrap; line-height: 1.5; max-width: 128px; text-align: center;"><span class="nodeLabel markdown-node-label" style=""><p>MANROPE</p></span></div></foreignObject></g><g class="label" style="" transform="translate(0,36)"><foreignObject width="47.125" height="24"><div xmlns="http://www.w3.org/1999/xhtml" style="display: table-cell; white-space: nowrap; line-height: 1.5; max-width: 94px; text-align: center;"><span class="nodeLabel markdown-node-label" style=""><p>SERIF</p></span></div></foreignObject></g><g class="label" style="" transform="translate(0,60)"><foreignObject width="66.40625" height="24"><div xmlns="http://www.w3.org/1999/xhtml" style="display: table-cell; white-space: nowrap; line-height: 1.5; max-width: 117px; text-align: center;"><span class="nodeLabel markdown-node-label" style=""><p>DISPLAY</p></span></div></foreignObject></g><g class="label" style="" transform="translate(0,84)"><foreignObject width="49.78125" height="24"><div xmlns="http://www.w3.org/1999/xhtml" style="display: table-cell; white-space: nowrap; line-height: 1.5; max-width: 99px; text-align: center;"><span class="nodeLabel markdown-node-label" style=""><p>MONO</p></span></div></foreignObject></g></g><g class="methods-group text" transform="translate(-67.140625, 120)"></g><g class="divider neo-line" style=""><path d="M-79.140625 -48 C-15.925798501212654 -47.99960061708826, 47.28902799757469 -47.999201234176525, 79.140625 -47.999 M-79.140625 -48 C-26.382256807134368 -47.99966667960865, 26.376111385731264 -47.99933335921731, 79.140625 -47.999" stroke="#9370DB" stroke-width="1.3" fill="none" stroke-dasharray="0 0" style=""></path></g><g class="divider neo-line" style=""><path d="M-79.140625 96 C-29.681360485022047 96.00031247709072, 19.777904029955906 96.00062495418143, 79.140625 96.001 M-79.140625 96 C-40.43917969453037 96.000244510612, -1.7377343890607335 96.000489021224, 79.140625 96.001" stroke="#9370DB" stroke-width="1.3" fill="none" stroke-dasharray="0 0" style=""></path></g></g><g class="node default " id="mermaid-1790036325626-classId-Disponibilidade-5" data-look="neo" transform="translate(111.1484375, 1424)"><g class="basic label-container outer-path"><path d="M-97.796875 -84 L97.796875 -84 L97.796875 84 L-97.796875 84" stroke="none" stroke-width="0" fill="#ECECFF" style=""></path><path d="M-97.796875 -84 C-49.103802689987326 -84, -0.4107303799746518 -84, 97.796875 -84 M-97.796875 -84 C-41.30250310155056 -84, 15.191868796898873 -84, 97.796875 -84 M97.796875 -84 C97.796875 -34.306810445916845, 97.796875 15.38637910816631, 97.796875 84 M97.796875 -84 C97.796875 -34.7396328435163, 97.796875 14.520734312967406, 97.796875 84 M97.796875 84 C27.394226378657677 84, -43.008422242684645 84, -97.796875 84 M97.796875 84 C52.46819352457318 84, 7.1395120491463615 84, -97.796875 84 M-97.796875 84 C-97.796875 43.24876531243687, -97.796875 2.4975306248737468, -97.796875 -84 M-97.796875 84 C-97.796875 33.34535789239908, -97.796875 -17.309284215201842, -97.796875 -84" stroke="#9370DB" stroke-width="1.3" fill="none" stroke-dasharray="0 0" style=""></path></g><g class="annotation-group text" transform="translate(-53.375, -60)"><g class="label" style="" transform="translate(0,-12)"><foreignObject width="106.75" height="24"><div xmlns="http://www.w3.org/1999/xhtml" style="display: table-cell; white-space: nowrap; line-height: 1.5; max-width: 146px; text-align: center;"><span class="nodeLabel markdown-node-label" style=""><p>«enumeration»</p></span></div></foreignObject></g></g><g class="label-group text" transform="translate(-59.5625, -36)"><g class="label" style="font-weight: bolder" transform="translate(0,-12)"><foreignObject width="119.125" height="24"><div xmlns="http://www.w3.org/1999/xhtml" style="display: table-cell; white-space: nowrap; line-height: 1.5; max-width: 152px; text-align: center;"><span class="nodeLabel markdown-node-label" style=""><p>Disponibilidade</p></span></div></foreignObject></g></g><g class="members-group text" transform="translate(-85.796875, 12)"><g class="label" style="" transform="translate(0,-12)"><foreignObject width="96.03125" height="24"><div xmlns="http://www.w3.org/1999/xhtml" style="display: table-cell; white-space: nowrap; line-height: 1.5; max-width: 144px; text-align: center;"><span class="nodeLabel markdown-node-label" style=""><p>DISPONIVEL</p></span></div></foreignObject></g><g class="label" style="" transform="translate(0,12)"><foreignObject width="112.03125" height="24"><div xmlns="http://www.w3.org/1999/xhtml" style="display: table-cell; white-space: nowrap; line-height: 1.5; max-width: 161px; text-align: center;"><span class="nodeLabel markdown-node-label" style=""><p>INDISPONIVEL</p></span></div></foreignObject></g></g><g class="methods-group text" transform="translate(-85.796875, 84)"></g><g class="divider neo-line" style=""><path d="M-97.796875 -12 C-42.46358515356631 -11.999717100930646, 12.869704692867387 -11.999434201861293, 97.796875 -11.999 M-97.796875 -12 C-48.59402641192233 -11.999748443656364, 0.6088221761553427 -11.999496887312729, 97.796875 -11.999" stroke="#9370DB" stroke-width="1.3" fill="none" stroke-dasharray="0 0" style=""></path></g><g class="divider neo-line" style=""><path d="M-97.796875 60 C-34.098704785463376 60.00032566567293, 29.59946542907325 60.00065133134586, 97.796875 60.001 M-97.796875 60 C-43.69282718565324 60.00027661440007, 10.411220628693513 60.00055322880014, 97.796875 60.001" stroke="#9370DB" stroke-width="1.3" fill="none" stroke-dasharray="0 0" style=""></path></g></g></g></g></g><defs><filter id="mermaid-1790036325626-drop-shadow" height="130%" width="130%"><feDropShadow dx="4" dy="4" stdDeviation="0" flood-opacity="0.06" flood-color="#000000"></feDropShadow></filter></defs><defs><filter id="mermaid-1790036325626-drop-shadow-small" height="150%" width="150%"><feDropShadow dx="2" dy="2" stdDeviation="0" flood-opacity="0.06" flood-color="#000000"></feDropShadow></filter></defs></svg>